<svg xmlns="http://www.w3.org/2000/svg" viewBox="0 0 760 420" role="img" aria-labelledby="title desc"><title id="title">Responsive layout devices</title><desc id="desc">Desktop, tablet, and phone layouts showing responsive design.</desc><rect width="760" height="420" rx="28" fill="#fff7f4"/><g font-family="Arial"><rect x="70" y="90" width="320" height="210" rx="18" fill="#333"/><rect x="92" y="112" width="276" height="150" rx="8" fill="#fff"/><rect x="112" y="132" width="236" height="24" fill="#8b0000"/><rect x="112" y="176" width="100" height="62" fill="#f1ded8"/><rect x="232" y="176" width="116" height="62" fill="#f1ded8"/><rect x="450" y="82" width="130" height="230" rx="18" fill="#333"/><rect x="466" y="108" width="98" height="172" rx="8" fill="#fff"/><rect x="480" y="126" width="70" height="18" fill="#8b0000"/><rect x="480" y="158" width="70" height="94" fill="#f1ded8"/><rect x="610" y="130" width="80" height="160" rx="18" fill="#333"/><rect x="622" y="154" width="56" height="106" rx="8" fill="#fff"/><rect x="631" y="168" width="38" height="14" fill="#8b0000"/><rect x="631" y="194" width="38" height="48" fill="#f1ded8"/><text x="380" y="358" text-anchor="middle" font-size="26" font-weight="700" fill="#5d0000">One site, three screen sizes</text></g></svg>